<svg width="440" height="479" viewBox="0 0 440 479" fill="none" xmlns="http://www.w3.org/2000/svg">
    <g opacity="0.5">
        <circle opacity="0.1" cx="114" cy="114" r="114" transform="matrix(0.5 0.866025 0.866025 -0.5 -65 45)" fill="url(#paint0_linear_442_2034)"/>
        <circle opacity="0.1" cx="114" cy="114" r="114" transform="matrix(0.5 0.866025 0.866025 -0.5 239 51)" fill="url(#paint1_linear_442_2034)"/>
        <circle opacity="0.1" cx="114" cy="114" r="114" transform="matrix(0.5 0.866025 0.866025 -0.5 78 51)" fill="url(#paint2_linear_442_2034)"/>
    </g>
    <g opacity="0.5">
        <circle opacity="0.1" cx="372.726" cy="316.727" r="114" transform="rotate(120 372.726 316.727)" fill="url(#paint3_linear_442_2034)"/>
        <circle opacity="0.1" cx="68.7262" cy="322.727" r="114" transform="rotate(120 68.7262 322.727)" fill="url(#paint4_linear_442_2034)"/>
        <circle opacity="0.1" cx="229.726" cy="322.727" r="114" transform="rotate(120 229.726 322.727)" fill="url(#paint5_linear_442_2034)"/>
    </g>
    <defs>
        <linearGradient id="paint0_linear_442_2034" x1="114" y1="0" x2="114" y2="228" gradientUnits="userSpaceOnUse">
            <stop stop-color="white" stop-opacity="0"/>
            <stop offset="1" stop-color="white"/>
        </linearGradient>
        <linearGradient id="paint1_linear_442_2034" x1="114" y1="0" x2="114" y2="228" gradientUnits="userSpaceOnUse">
            <stop stop-color="white" stop-opacity="0"/>
            <stop offset="1" stop-color="white"/>
        </linearGradient>
        <linearGradient id="paint2_linear_442_2034" x1="114" y1="0" x2="114" y2="228" gradientUnits="userSpaceOnUse">
            <stop stop-color="white" stop-opacity="0"/>
            <stop offset="1" stop-color="white"/>
        </linearGradient>
        <linearGradient id="paint3_linear_442_2034" x1="372.726" y1="202.727" x2="372.726" y2="430.727" gradientUnits="userSpaceOnUse">
            <stop stop-color="white" stop-opacity="0"/>
            <stop offset="1" stop-color="white"/>
        </linearGradient>
        <linearGradient id="paint4_linear_442_2034" x1="68.7262" y1="208.727" x2="68.7262" y2="436.727" gradientUnits="userSpaceOnUse">
            <stop stop-color="white" stop-opacity="0"/>
            <stop offset="1" stop-color="white"/>
        </linearGradient>
        <linearGradient id="paint5_linear_442_2034" x1="229.726" y1="208.727" x2="229.726" y2="436.727" gradientUnits="userSpaceOnUse">
            <stop stop-color="white" stop-opacity="0"/>
            <stop offset="1" stop-color="white"/>
        </linearGradient>
    </defs>
</svg>
