<svg width="20" height="20" viewBox="0 0 20 20" fill="none" xmlns="http://www.w3.org/2000/svg">
    <path d="M8.20835 1.45831H11.7917C15.1701 1.45831 16.8593 1.45831 17.9089 2.5117C18.9584 3.56509 18.9584 5.26049 18.9584 8.65131V9.1009C18.9584 12.4916 18.9584 14.1871 17.9089 15.2405C16.8593 16.2938 15.1701 16.2938 11.7917 16.2938C11.2896 16.3051 10.8897 16.3434 10.4969 16.4332C9.59369 16.6419 8.74677 17.0652 7.9157 17.4806C7.759 17.559 7.60261 17.6371 7.44678 17.7135C6.04696 18.3985 5.34706 18.7411 4.90783 18.4204C4.48872 18.1071 4.47028 17.5161 4.58702 16.8626C4.63524 16.5926 4.65935 16.4576 4.60064 16.3728C4.54193 16.2881 4.40675 16.2631 4.1364 16.2131C3.25615 16.0506 2.57534 15.7263 2.09122 15.2405C1.04169 14.1871 1.04169 12.4916 1.04169 9.1009V8.65131C1.04169 5.26049 1.04169 3.56509 2.09122 2.5117C3.14075 1.45831 4.82995 1.45831 8.20835 1.45831Z" fill="#1B1B35"/>
</svg>