<svg width="17" height="16" viewBox="0 0 17 16" fill="none" xmlns="http://www.w3.org/2000/svg">
    <path d="M4.79959 12.1485C3.9683 12.0667 3.34557 11.817 2.92793 11.3994C2.17883 10.6503 2.17883 9.44464 2.17883 7.03336V6.71366C2.17883 4.30235 2.17883 3.09671 2.92793 2.34761C3.67703 1.59851 4.88268 1.59851 7.29398 1.59851H9.85156C12.2628 1.59851 13.4685 1.59851 14.2176 2.34761C14.9667 3.09671 14.9667 4.30235 14.9667 6.71366V7.03336C14.9667 9.44464 14.9667 10.6503 14.2176 11.3994C13.4685 12.1485 12.2628 12.1485 9.85156 12.1485C9.49318 12.1565 9.20775 12.1837 8.92738 12.2476C8.16113 12.424 7.45159 12.8161 6.75042 13.158C5.75131 13.6452 5.25176 13.8888 4.93826 13.6607C4.33851 13.2141 4.92474 11.83 5.05611 11.1894" stroke="#1A2943" stroke-width="0.959091" stroke-linecap="round"/>
</svg>