<svg width="20" height="20" viewBox="0 0 20 20" fill="none" xmlns="http://www.w3.org/2000/svg">
    <path fill-rule="evenodd" clip-rule="evenodd" d="M1.04166 10.5208C1.04166 9.19764 2.081 8.125 3.36308 8.125C5.07254 8.125 6.45832 9.55523 6.45832 11.3195V14.5139C6.45832 16.2781 5.07254 17.7083 3.36308 17.7083C2.081 17.7083 1.04166 16.6356 1.04166 15.3125V10.5208ZM3.36308 9.72223C2.93572 9.72223 2.58927 10.0798 2.58927 10.5208V15.3125C2.58927 15.7536 2.93572 16.1111 3.36308 16.1111C4.21781 16.1111 4.91071 15.396 4.91071 14.5139V11.3195C4.91071 10.4373 4.21781 9.72223 3.36308 9.72223Z" fill="#6662FF"/>
    <path d="M10.6658 2.65415C11.2748 2.12415 12.2104 2.18094 12.747 2.78805C12.8414 2.90625 13.0587 3.194 13.1725 3.39942C13.6973 4.2664 13.8572 5.29905 13.616 6.28018C13.589 6.38984 13.5547 6.5007 13.5019 6.67121L13.2741 7.40681C13.1795 7.7123 13.1223 7.89939 13.0931 8.03945C13.0713 8.1167 13.0821 8.27358 13.3001 8.28315C13.4502 8.29654 14.0381 8.29712 14.3662 8.29712C15.3972 8.2971 16.2343 8.29709 16.874 8.38175C17.5281 8.46833 18.1218 8.65941 18.5263 9.16633C18.6061 9.26641 18.6773 9.373 18.7389 9.48508C19.0553 10.0598 18.9883 10.6789 18.7978 11.3021C18.6125 11.9084 18.2657 12.6551 17.8408 13.5697C17.4466 14.4187 17.0967 15.1722 16.7834 15.7006C16.4593 16.2472 16.1129 16.677 15.6341 17.0038C15.0732 17.3867 14.3253 17.587 13.6851 17.6486C13.0643 17.7083 12.3018 17.7083 11.3453 17.7083C10.1919 17.7083 8.76226 17.7083 8.03377 17.6135C7.27987 17.5152 6.64481 17.3056 6.13859 16.8151C5.62962 16.3219 5.40947 15.6987 5.30683 14.959C5.20835 14.2493 5.20837 13.3478 5.20838 12.2335L5.20837 11.2562C5.20804 10.1579 5.20783 9.44016 5.46595 8.7745C5.72344 8.11055 6.20921 7.57294 6.95603 6.74643L10.4645 2.86142C10.5308 2.78787 10.5985 2.71274 10.6658 2.65415Z" fill="#6662FF"/>
</svg>